<mxfile host="app.diagrams.net" agent="Mozilla/5.0 (Macintosh; Intel Mac OS X 10_15_7) AppleWebKit/537.36 (KHTML, like Gecko) Chrome/131.0.0.0 Safari/537.36" version="26.0.4">
  <diagram name="Página-1" id="TR8Tzpfd6Laq8v5IWnF5">
    <mxGraphModel dx="978" dy="1671" grid="1" gridSize="10" guides="1" tooltips="1" connect="1" arrows="1" fold="1" page="1" pageScale="1" pageWidth="827" pageHeight="1169" math="0" shadow="0">
      <root>
        <mxCell id="0" />
        <mxCell id="1" parent="0" />
        <mxCell id="nWsMwnE5BhAC_axjIMVH-4" value="" style="verticalLabelPosition=bottom;verticalAlign=top;html=1;shape=mxgraph.basic.rect;fillColor2=none;strokeWidth=1;size=20;indent=5;" vertex="1" parent="1">
          <mxGeometry x="80" y="-350" width="590" height="50" as="geometry" />
        </mxCell>
        <mxCell id="nWsMwnE5BhAC_axjIMVH-5" value="Logo" style="verticalLabelPosition=middle;verticalAlign=middle;html=1;shape=mxgraph.basic.rect;fillColor2=none;strokeWidth=1;size=20;indent=5;horizontal=1;labelPosition=center;align=center;" vertex="1" parent="1">
          <mxGeometry x="100" y="-340" width="120" height="30" as="geometry" />
        </mxCell>
        <mxCell id="nWsMwnE5BhAC_axjIMVH-6" value="Barra de navegación" style="verticalLabelPosition=middle;verticalAlign=middle;html=1;shape=mxgraph.basic.rect;fillColor2=none;strokeWidth=1;size=20;indent=5;horizontal=1;labelPosition=center;align=center;" vertex="1" parent="1">
          <mxGeometry x="410" y="-340" width="240" height="30" as="geometry" />
        </mxCell>
        <mxCell id="nWsMwnE5BhAC_axjIMVH-8" value="Banner" style="verticalLabelPosition=middle;verticalAlign=middle;html=1;shape=mxgraph.basic.rect;fillColor2=none;strokeWidth=1;size=20;indent=5;horizontal=1;labelPosition=center;align=center;" vertex="1" parent="1">
          <mxGeometry x="80" y="-300" width="590" height="290" as="geometry" />
        </mxCell>
        <mxCell id="nWsMwnE5BhAC_axjIMVH-9" value="Productos" style="verticalLabelPosition=middle;verticalAlign=top;html=1;shape=mxgraph.basic.rect;fillColor2=none;strokeWidth=1;size=20;indent=5;horizontal=1;labelPosition=center;align=center;" vertex="1" parent="1">
          <mxGeometry x="80" y="-10" width="590" height="310" as="geometry" />
        </mxCell>
        <mxCell id="nWsMwnE5BhAC_axjIMVH-10" value="" style="verticalLabelPosition=bottom;verticalAlign=top;html=1;shape=mxgraph.basic.rect;fillColor2=none;strokeWidth=1;size=20;indent=5;" vertex="1" parent="1">
          <mxGeometry x="140" y="60" width="150" height="180" as="geometry" />
        </mxCell>
        <mxCell id="nWsMwnE5BhAC_axjIMVH-11" value="" style="verticalLabelPosition=bottom;verticalAlign=top;html=1;shape=mxgraph.basic.rect;fillColor2=none;strokeWidth=1;size=20;indent=5;" vertex="1" parent="1">
          <mxGeometry x="300" y="60" width="150" height="180" as="geometry" />
        </mxCell>
        <mxCell id="nWsMwnE5BhAC_axjIMVH-12" value="" style="verticalLabelPosition=bottom;verticalAlign=top;html=1;shape=mxgraph.basic.rect;fillColor2=none;strokeWidth=1;size=20;indent=5;" vertex="1" parent="1">
          <mxGeometry x="460" y="60" width="150" height="180" as="geometry" />
        </mxCell>
        <mxCell id="nWsMwnE5BhAC_axjIMVH-13" value="Nosotros" style="verticalLabelPosition=middle;verticalAlign=top;html=1;shape=mxgraph.basic.rect;fillColor2=none;strokeWidth=1;size=20;indent=5;horizontal=1;labelPosition=center;align=center;" vertex="1" parent="1">
          <mxGeometry x="80" y="300" width="590" height="310" as="geometry" />
        </mxCell>
        <mxCell id="nWsMwnE5BhAC_axjIMVH-14" value="texto" style="verticalLabelPosition=middle;verticalAlign=middle;html=1;shape=mxgraph.basic.rect;fillColor2=none;strokeWidth=1;size=20;indent=5;labelPosition=center;align=center;" vertex="1" parent="1">
          <mxGeometry x="120" y="365" width="250" height="180" as="geometry" />
        </mxCell>
        <mxCell id="nWsMwnE5BhAC_axjIMVH-15" value="imagen" style="verticalLabelPosition=middle;verticalAlign=middle;html=1;shape=mxgraph.basic.rect;fillColor2=none;strokeWidth=1;size=20;indent=5;labelPosition=center;align=center;" vertex="1" parent="1">
          <mxGeometry x="370" y="365" width="250" height="180" as="geometry" />
        </mxCell>
        <mxCell id="nWsMwnE5BhAC_axjIMVH-16" value="Footer" style="verticalLabelPosition=middle;verticalAlign=top;html=1;shape=mxgraph.basic.rect;fillColor2=none;strokeWidth=1;size=20;indent=5;horizontal=1;labelPosition=center;align=center;" vertex="1" parent="1">
          <mxGeometry x="80" y="610" width="590" height="190" as="geometry" />
        </mxCell>
        <mxCell id="nWsMwnE5BhAC_axjIMVH-17" value="Título" style="verticalLabelPosition=middle;verticalAlign=middle;html=1;shape=mxgraph.basic.rect;fillColor2=none;strokeWidth=1;size=20;indent=5;labelPosition=center;align=center;" vertex="1" parent="1">
          <mxGeometry x="110" y="640" width="160" height="30" as="geometry" />
        </mxCell>
        <mxCell id="nWsMwnE5BhAC_axjIMVH-18" value="" style="ellipse;whiteSpace=wrap;html=1;aspect=fixed;" vertex="1" parent="1">
          <mxGeometry x="130" y="700" width="30" height="30" as="geometry" />
        </mxCell>
        <mxCell id="nWsMwnE5BhAC_axjIMVH-19" value="" style="ellipse;whiteSpace=wrap;html=1;aspect=fixed;fontStyle=1" vertex="1" parent="1">
          <mxGeometry x="166" y="700" width="30" height="30" as="geometry" />
        </mxCell>
        <mxCell id="nWsMwnE5BhAC_axjIMVH-20" value="" style="ellipse;whiteSpace=wrap;html=1;aspect=fixed;fontStyle=1" vertex="1" parent="1">
          <mxGeometry x="204" y="700" width="30" height="30" as="geometry" />
        </mxCell>
        <mxCell id="nWsMwnE5BhAC_axjIMVH-21" value="Redes sociales" style="text;html=1;align=center;verticalAlign=middle;whiteSpace=wrap;rounded=0;" vertex="1" parent="1">
          <mxGeometry x="111" y="670" width="140" height="30" as="geometry" />
        </mxCell>
        <mxCell id="nWsMwnE5BhAC_axjIMVH-22" value="Email de contacto" style="rounded=0;whiteSpace=wrap;html=1;" vertex="1" parent="1">
          <mxGeometry x="112" y="760" width="156" height="20" as="geometry" />
        </mxCell>
        <mxCell id="nWsMwnE5BhAC_axjIMVH-24" value="Párrafo suscripción" style="rounded=0;whiteSpace=wrap;html=1;" vertex="1" parent="1">
          <mxGeometry x="450" y="705" width="200" height="20" as="geometry" />
        </mxCell>
        <mxCell id="nWsMwnE5BhAC_axjIMVH-25" value="Formulario" style="rounded=1;whiteSpace=wrap;html=1;" vertex="1" parent="1">
          <mxGeometry x="450" y="750" width="126" height="30" as="geometry" />
        </mxCell>
        <mxCell id="nWsMwnE5BhAC_axjIMVH-26" value="Botón" style="rounded=1;whiteSpace=wrap;html=1;" vertex="1" parent="1">
          <mxGeometry x="580" y="755" width="70" height="20" as="geometry" />
        </mxCell>
      </root>
    </mxGraphModel>
  </diagram>
</mxfile>
